<svg width="180" height="191" viewBox="0 0 180 191" fill="none" xmlns="http://www.w3.org/2000/svg">
<path d="M67.8261 54.7541C59.7391 54.7541 52.1739 56.0578 44.8696 58.6651C49.3044 25.5519 77.7391 0 112.174 0C149.739 0 180 30.2451 180 67.7908C180 97.2537 161.217 122.284 135.13 131.671C135.652 128.802 135.652 125.674 135.652 122.545C135.652 84.9992 105.391 54.7541 67.8261 54.7541Z" fill="#13AE8D"/>
<path d="M44.8695 58.6652C44.3477 61.5332 44.3478 64.662 44.3478 67.7908C44.3478 105.337 74.6086 135.582 112.174 135.582C120.261 135.582 127.826 134.278 135.13 131.671C130.696 164.784 102.261 190.336 67.826 190.336C30.2608 190.336 -6.10352e-05 160.091 -6.10352e-05 122.545C-6.10352e-05 93.082 18.7825 68.0516 44.8695 58.6652Z" fill="#3D3E3E"/>
</svg>
